HIERARCHY
ROOT hips
{
	OFFSET 0.000000 104.274902 0.000000
	CHANNELS 6 Xposition Yposition Zposition Xrotation Yrotation Zrotation
	JOINT spine
	{
		OFFSET 0.000000 10.181549 0.131524
		CHANNELS 6 Xposition Yposition Zposition Xrotation Yrotation Zrotation
		JOINT chest
		{
			OFFSET 0.000000 9.893990 -1.470706
			CHANNELS 3 Xrotation Yrotation Zrotation
			JOINT upperChest
			{
				OFFSET 0.000000 9.220787 -1.370637
				CHANNELS 3 Xrotation Yrotation Zrotation
				JOINT neck
				{
					OFFSET 0.000000 16.740372 -2.049022
					CHANNELS 6 Xposition Yposition Zposition Xrotation Yrotation Zrotation
					JOINT head
					{
						OFFSET 0.000000 9.617859 1.684976
						CHANNELS 6 Xposition Yposition Zposition Xrotation Yrotation Zrotation
						JOINT headEnd
						{
							OFFSET 0.000000 22.037384 7.501072
							CHANNELS 6 Xposition Yposition Zposition Xrotation Yrotation Zrotation
							End Site
							{
								OFFSET 0.000000 23.106567 -2.828246
							}
						}
					}
				}
				JOINT rightShoulder
				{
					OFFSET -4.570000 11.014877 -2.160840
					CHANNELS 6 Xposition Yposition Zposition Xrotation Yrotation Zrotation
					JOINT rightUpperArm
					{
						OFFSET -10.592867 -0.524796 -2.232105
						CHANNELS 3 Xrotation Yrotation Zrotation
						JOINT rightLowerArm
						{
							OFFSET -27.841497 0.000000 -0.000002
							CHANNELS 3 Xrotation Yrotation Zrotation
							JOINT rightHand
							{
								OFFSET -28.328812 0.000000 -0.000001
								CHANNELS 3 Xrotation Yrotation Zrotation
								JOINT rightThumbProximal
								{
									OFFSET -2.464798 -1.573990 2.681911
									CHANNELS 6 Xposition Yposition Zposition Xrotation Yrotation Zrotation
									JOINT rightThumbIntermediate
									{
										OFFSET -3.244781 -1.873383 1.873376
										CHANNELS 3 Xrotation Yrotation Zrotation
										JOINT rightThumbDistal
										{
											OFFSET -2.646263 -1.527817 1.527818
											CHANNELS 6 Xposition Yposition Zposition Xrotation Yrotation Zrotation
											JOINT rightHandThumb4
											{
												OFFSET -1.994591 -1.151581 1.151575
												CHANNELS 6 Xposition Yposition Zposition Xrotation Yrotation Zrotation
												End Site
												{
													OFFSET -1.860176 -1.142715 1.365483
												}
											}
										}
									}
								}
								JOINT rightIndexProximal
								{
									OFFSET -9.108299 -0.517883 2.259803
									CHANNELS 6 Xposition Yposition Zposition Xrotation Yrotation Zrotation
									JOINT rightIndexIntermediate
									{
										OFFSET -3.699997 0.000000 0.000000
										CHANNELS 3 Xrotation Yrotation Zrotation
										JOINT rightIndexDistal
										{
											OFFSET -2.850006 0.000000 0.000000
											CHANNELS 3 Xrotation Yrotation Zrotation
											JOINT rightHandIndex4
											{
												OFFSET -2.772194 0.000000 0.000000
												CHANNELS 3 Xrotation Yrotation Zrotation
												End Site
												{
													OFFSET -2.772202 0.000000 -0.000484
												}
											}
										}
									}
								}
								JOINT rightMiddleProximal
								{
									OFFSET -9.532501 0.000000 -0.000000
									CHANNELS 6 Xposition Yposition Zposition Xrotation Yrotation Zrotation
									JOINT rightMiddleIntermediate
									{
										OFFSET -3.699997 0.000000 0.000000
										CHANNELS 3 Xrotation Yrotation Zrotation
										JOINT rightMiddleDistal
										{
											OFFSET -2.949997 0.000000 0.000000
											CHANNELS 3 Xrotation Yrotation Zrotation
											JOINT rightHandMiddle4
											{
												OFFSET -2.946594 0.000000 0.000000
												CHANNELS 3 Xrotation Yrotation Zrotation
												End Site
												{
													OFFSET -2.946602 0.000000 -0.000982
												}
											}
										}
									}
								}
								JOINT rightRingProximal
								{
									OFFSET -9.103600 -0.043106 -1.865100
									CHANNELS 6 Xposition Yposition Zposition Xrotation Yrotation Zrotation
									JOINT rightRingIntermediate
									{
										OFFSET -3.379303 0.000000 0.000000
										CHANNELS 3 Xrotation Yrotation Zrotation
										JOINT rightRingDistal
										{
											OFFSET -2.889694 0.000000 0.000000
											CHANNELS 3 Xrotation Yrotation Zrotation
											JOINT rightHandRing4
											{
												OFFSET -2.638802 0.000000 0.000000
												CHANNELS 3 Xrotation Yrotation Zrotation
												End Site
												{
													OFFSET -2.638802 0.000000 0.004218
												}
											}
										}
									}
								}
								JOINT rightLittleProximal
								{
									OFFSET -8.076698 -0.486725 -3.806299
									CHANNELS 6 Xposition Yposition Zposition Xrotation Yrotation Zrotation
									JOINT rightLittleIntermediate
									{
										OFFSET -3.600006 0.000000 0.000000
										CHANNELS 3 Xrotation Yrotation Zrotation
										JOINT rightLittleDistal
										{
											OFFSET -2.099998 0.000000 0.000000
											CHANNELS 3 Xrotation Yrotation Zrotation
											JOINT rightHandPinky4
											{
												OFFSET -2.115791 0.000000 0.000000
												CHANNELS 3 Xrotation Yrotation Zrotation
												End Site
												{
													OFFSET -2.115799 0.000000 0.000174
												}
											}
										}
									}
								}
							}
						}
					}
				}
				JOINT leftShoulder
				{
					OFFSET 4.570400 11.014679 -2.160816
					CHANNELS 6 Xposition Yposition Zposition Xrotation Yrotation Zrotation
					JOINT leftUpperArm
					{
						OFFSET 10.592373 -0.524597 -2.232116
						CHANNELS 3 Xrotation Yrotation Zrotation
						JOINT leftLowerArm
						{
							OFFSET 27.841488 0.000000 0.000001
							CHANNELS 3 Xrotation Yrotation Zrotation
							JOINT leftHand
							{
								OFFSET 28.328808 0.000000 -0.000000
								CHANNELS 3 Xrotation Yrotation Zrotation
								JOINT leftThumbProximal
								{
									OFFSET 2.466103 -1.576202 2.681698
									CHANNELS 6 Xposition Yposition Zposition Xrotation Yrotation Zrotation
									JOINT leftThumbIntermediate
									{
										OFFSET 3.243317 -1.872528 1.872530
										CHANNELS 3 Xrotation Yrotation Zrotation
										JOINT leftThumbDistal
										{
											OFFSET 2.647881 -1.528763 1.528754
											CHANNELS 6 Xposition Yposition Zposition Xrotation Yrotation Zrotation
											JOINT leftHandThumb4
											{
												OFFSET 1.998924 -1.154083 1.154080
												CHANNELS 6 Xposition Yposition Zposition Xrotation Yrotation Zrotation
												End Site
												{
													OFFSET 1.884041 -1.149155 1.337651
												}
											}
										}
									}
								}
								JOINT leftIndexProximal
								{
									OFFSET 9.109299 -0.518005 2.259900
									CHANNELS 6 Xposition Yposition Zposition Xrotation Yrotation Zrotation
									JOINT leftIndexIntermediate
									{
										OFFSET 3.699997 0.000000 0.000000
										CHANNELS 3 Xrotation Yrotation Zrotation
										JOINT leftIndexDistal
										{
											OFFSET 2.850006 0.000000 0.000000
											CHANNELS 3 Xrotation Yrotation Zrotation
											JOINT leftHandIndex4
											{
												OFFSET 2.774895 0.000000 0.000000
												CHANNELS 3 Xrotation Yrotation Zrotation
												End Site
												{
													OFFSET 2.774902 0.000000 -0.000072
												}
											}
										}
									}
								}
								JOINT leftMiddleProximal
								{
									OFFSET 9.533401 0.000000 0.000000
									CHANNELS 6 Xposition Yposition Zposition Xrotation Yrotation Zrotation
									JOINT leftMiddleIntermediate
									{
										OFFSET 3.699997 0.000000 0.000000
										CHANNELS 3 Xrotation Yrotation Zrotation
										JOINT leftMiddleDistal
										{
											OFFSET 2.949997 0.000000 0.000000
											CHANNELS 3 Xrotation Yrotation Zrotation
											JOINT leftHandMiddle4
											{
												OFFSET 2.952896 0.000000 0.000000
												CHANNELS 3 Xrotation Yrotation Zrotation
												End Site
												{
													OFFSET 2.952904 0.000000 0.000165
												}
											}
										}
									}
								}
								JOINT leftRingProximal
								{
									OFFSET 9.104500 -0.042999 -1.865101
									CHANNELS 6 Xposition Yposition Zposition Xrotation Yrotation Zrotation
									JOINT leftRingIntermediate
									{
										OFFSET 3.149994 0.000000 0.000000
										CHANNELS 3 Xrotation Yrotation Zrotation
										JOINT leftRingDistal
										{
											OFFSET 2.950005 0.000000 0.000000
											CHANNELS 3 Xrotation Yrotation Zrotation
											JOINT leftHandRing4
											{
												OFFSET 2.644302 0.000000 0.000000
												CHANNELS 3 Xrotation Yrotation Zrotation
												End Site
												{
													OFFSET 2.644302 0.000000 0.000083
												}
											}
										}
									}
								}
								JOINT leftLittleProximal
								{
									OFFSET 8.077805 -0.486893 -3.806302
									CHANNELS 6 Xposition Yposition Zposition Xrotation Yrotation Zrotation
									JOINT leftLittleIntermediate
									{
										OFFSET 3.600006 0.000000 0.000000
										CHANNELS 3 Xrotation Yrotation Zrotation
										JOINT leftLittleDistal
										{
											OFFSET 2.099998 0.000000 0.000000
											CHANNELS 3 Xrotation Yrotation Zrotation
											JOINT leftHandPinky4
											{
												OFFSET 2.125496 0.000000 0.000000
												CHANNELS 3 Xrotation Yrotation Zrotation
												End Site
												{
													OFFSET 2.125504 0.000000 -0.001254
												}
											}
										}
									}
								}
							}
						}
					}
				}
			}
		}
	}
	JOINT rightUpperLeg
	{
		OFFSET -8.207800 -6.751701 -1.599544
		CHANNELS 6 Xposition Yposition Zposition Xrotation Yrotation Zrotation
		JOINT rightLowerLeg
		{
			OFFSET 0.000004 -44.370152 0.345934
			CHANNELS 3 Xrotation Yrotation Zrotation
			JOINT rightFoot
			{
				OFFSET 0.000004 -44.423664 -3.043535
				CHANNELS 3 Xrotation Yrotation Zrotation
				JOINT rightToes
				{
					OFFSET 0.000001 -8.728691 10.710592
					CHANNELS 3 Xrotation Yrotation Zrotation
					JOINT rightToesEnd
					{
						OFFSET 0.000000 -0.000665 9.278101
						CHANNELS 3 Xrotation Yrotation Zrotation
						End Site
						{
							OFFSET 0.000000 -0.000665 9.278103
						}
					}
				}
			}
		}
	}
	JOINT leftUpperLeg
	{
		OFFSET 8.207800 -6.751701 -1.599544
		CHANNELS 6 Xposition Yposition Zposition Xrotation Yrotation Zrotation
		JOINT leftLowerLeg
		{
			OFFSET 0.000004 -44.370037 0.346940
			CHANNELS 3 Xrotation Yrotation Zrotation
			JOINT leftFoot
			{
				OFFSET 0.000004 -44.423611 -3.044388
				CHANNELS 3 Xrotation Yrotation Zrotation
				JOINT leftToes
				{
					OFFSET 0.000001 -8.728690 10.710592
					CHANNELS 3 Xrotation Yrotation Zrotation
					JOINT leftToesEnd
					{
						OFFSET 0.000000 -0.000680 9.278101
						CHANNELS 3 Xrotation Yrotation Zrotation
						End Site
						{
							OFFSET 0.000000 -0.000680 9.278101
						}
					}
				}
			}
		}
	}
}
MOTION
Frames: 4
Frame Time: 0.033333
-0.169087 97.081535 26.396770 -51.146130 80.401217 40.752826 -0.000000 10.181557 0.131520 20.441621 10.236841 5.622514 -1.733852 0.823375 3.224064 -1.779763 1.013835 3.693737 -0.000001 16.740356 -2.049017 0.309452 -11.928618 -6.366677 -0.000003 9.617852 1.684974 5.427342 -67.922352 11.872711 -0.000000 22.037338 7.501077 -0.000000 -0.000001 0.000000 -4.569996 11.014861 -2.160837 0.949532 1.275650 29.419875 -36.167006 3.741395 37.580565 -0.000025 22.358655 0.000035 -89.539047 30.569468 -7.768250 -2.464794 -1.574004 2.681912 1.164887 -10.153928 -11.423152 2.047500 0.403879 1.629770 -2.646266 -1.527807 1.527810 -3.513613 4.101708 -2.685446 -1.994590 -1.151570 1.151570 0.000002 -0.000001 -0.000000 -9.108294 -0.517877 2.259808 -1.873620 6.803064 14.345612 0.563756 -2.747336 23.188907 0.034095 -0.689146 5.664370 -0.000000 -0.000003 -0.000001 -9.532508 0.000008 0.000004 -0.419675 -1.402547 32.938526 0.420607 -2.385922 19.992529 1.819806 -0.499797 5.551553 0.000001 -0.000000 0.000002 -9.103600 -0.043116 -1.865098 4.976384 -7.108075 54.760420 0.418353 -2.379727 19.938598 2.089947 -0.169323 1.991213 0.000001 -0.000002 -0.000002 -8.076702 -0.486721 -3.806294 13.478443 -8.610211 77.145914 1.889939 -4.769764 43.211031 0.033720 0.685416 -5.633689 0.000001 0.000002 0.000002 4.570401 11.014655 -2.160813 0.045171 3.732534 -1.528398 -71.767789 10.751554 0.318096 0.000058 -84.789572 0.000048 -38.969064 -20.405757 -16.171941 2.466081 -1.576226 2.681698 -9.173702 -11.571828 0.007702 1.225738 -0.219449 -1.041732 2.647865 -1.528747 1.528751 -0.320861 2.563765 3.153064 1.998924 -1.154107 1.154076 -0.000004 0.000000 0.000003 9.109285 -0.518006 2.259902 -8.910924 -5.998097 -46.264689 0.185434 1.590433 -13.301162 0.039276 0.735995 -6.110573 0.000000 -0.000003 0.000001 9.533425 -0.000000 0.000005 -1.850276 0.002732 -38.209519 0.702520 3.034993 -26.061649 0.069332 0.976746 -8.121527 -0.000001 0.000002 -0.000000 9.104504 -0.043007 -1.865098 0.416812 3.032849 -40.512137 0.823340 3.270128 -28.258233 0.068414 0.970322 -8.067630 0.000001 -0.000001 0.000004 8.077800 -0.486891 -3.806297 2.312043 5.178561 -52.837886 0.299798 -2.043004 -17.429529 0.033614 0.681112 -5.653194 -0.000000 0.000003 -0.000001 -8.207801 -6.751699 -1.599543 -12.156676 -7.707708 -1.792556 39.030488 -9.754262 2.215098 -17.662864 -18.199247 15.613427 11.160503 -0.000005 0.000003 0.000000 -0.000000 -0.000000 8.207798 -6.751695 -1.599543 -28.785006 10.390072 25.851769 45.246236 -0.575955 -6.641475 -15.427425 -4.310535 -2.187132 -3.550335 0.000010 -0.000006 -0.000000 -0.000000 0.000000 
-0.298018 96.937790 27.354177 -51.654846 80.305136 41.276578 0.000005 10.181541 0.131525 20.364605 10.692130 7.072565 -1.623663 0.762934 3.394038 -1.687214 0.991085 3.978835 0.000001 16.740368 -2.049023 1.083970 -12.015943 -6.284271 0.000002 9.617850 1.684977 9.559057 -68.511510 15.143096 -0.000001 22.037354 7.501078 -0.000000 -0.000001 -0.000000 -4.570000 11.014876 -2.160841 0.925097 1.297179 27.758505 -30.487786 10.225276 31.529652 0.000005 20.845085 0.000012 -93.975521 27.196317 -15.897134 -2.464813 -1.573990 2.681919 -3.769769 -9.273463 -14.003180 2.047955 0.402144 1.637242 -2.646263 -1.527801 1.527820 -3.364336 3.805200 -2.747838 -1.994570 -1.151570 1.151582 0.000004 0.000004 0.000001 -9.108317 -0.517869 2.259810 -1.101069 6.070876 9.875634 0.150978 -1.443952 11.937222 0.004668 -0.255555 2.097576 0.000005 0.000002 -0.000002 -9.532516 0.000011 0.000009 -0.070227 -1.740124 29.982635 0.176591 -1.560140 12.914144 0.948292 -0.238076 2.264033 -0.000001 -0.000001 0.000000 -9.103606 -0.043116 -1.865094 5.100527 -7.302690 52.942763 0.293559 -2.002787 16.675371 1.408301 -0.060472 0.623360 0.000003 -0.000001 -0.000001 -8.076697 -0.486721 -3.806290 13.402294 -8.810029 75.683605 1.865854 -4.744086 42.920584 0.031041 0.657522 -5.403649 -0.000000 0.000002 0.000001 4.570402 11.014702 -2.160817 -0.006335 2.993062 0.355510 -61.263996 6.409686 3.023452 -0.000028 -77.488701 -0.000035 -29.740071 -20.978018 -15.258810 2.466089 -1.576214 2.681694 -9.424038 -13.561496 -2.937157 1.221392 -0.217118 -1.043906 2.647882 -1.528745 1.528756 -1.012201 1.297284 3.331432 1.998925 -1.154092 1.154074 0.000001 0.000003 -0.000000 9.109280 -0.518023 2.259896 -9.302306 -5.819630 -47.752964 0.209198 1.687749 -14.131960 0.038846 0.731949 -6.076804 -0.000000 0.000003 -0.000000 9.533397 0.000004 -0.000001 -1.887039 0.044196 -38.788142 0.711893 3.054076 -26.238356 0.069330 0.976771 -8.121659 -0.000000 -0.000001 0.000001 9.104502 -0.042995 -1.865105 0.399552 3.002627 -40.319703 0.770076 3.169200 -27.310047 0.067941 0.966968 -8.039589 -0.000000 -0.000000 0.000003 8.077806 -0.486902 -3.806305 2.310960 5.167383 -51.831696 0.234578 -2.263343 -15.527839 0.034128 0.686232 -5.695956 0.000000 -0.000001 -0.000001 -8.207795 -6.751709 -1.599543 -12.259961 -7.485869 -0.960489 39.595136 -9.719661 1.276964 -16.833624 -17.775858 17.782939 9.280523 0.034792 -1.866304 0.000000 0.000001 0.000000 8.207801 -6.751712 -1.599545 -28.495819 9.646948 25.156601 44.876908 -1.508707 -5.042462 -14.466204 -3.217558 -1.748561 -3.538220 0.000027 0.000008 0.000000 -0.000000 0.000000 
-0.360955 96.769951 27.720709 -46.591797 79.313973 36.075488 0.000005 10.181550 0.131522 20.404598 10.905147 7.950888 -1.427577 0.751994 3.430444 -1.490027 0.989297 4.026848 -0.000005 16.740368 -2.049019 1.762850 -12.021786 -6.413963 0.000002 9.617819 1.684982 12.221923 -68.756243 16.781051 0.000002 22.037369 7.501068 0.000000 0.000001 -0.000001 -4.569997 11.014892 -2.160841 0.939379 0.987171 25.938092 -29.270690 12.643933 26.130403 0.000003 20.557681 0.000002 -94.180304 26.152615 -21.171551 -2.464774 -1.573994 2.681903 -8.455510 -8.006256 -16.485918 2.049914 0.396566 1.662203 -2.646265 -1.527800 1.527816 -3.283653 3.599926 -2.836694 -1.994594 -1.151584 1.151575 -0.000001 -0.000002 0.000001 -9.108293 -0.517885 2.259793 -0.265508 5.705665 2.962983 0.017889 -0.499491 4.102285 0.000234 0.057234 -0.469647 -0.000002 -0.000001 -0.000001 -9.532494 -0.000006 -0.000012 0.098688 -1.785832 25.562902 0.062418 -0.931469 7.666726 0.342857 0.014796 -0.127620 0.000001 0.000000 -0.000000 -9.103595 -0.043106 -1.865115 4.974244 -7.339649 50.890558 0.219557 -1.736858 14.407765 0.941008 0.037775 -0.358930 -0.000002 -0.000000 0.000001 -8.076702 -0.486719 -3.806313 12.917686 -8.900841 74.196741 1.880295 -4.759520 43.094880 0.029371 0.639838 -5.257846 0.000001 -0.000002 -0.000001 4.570400 11.014698 -2.160816 0.032245 2.242073 1.405375 -53.496080 3.767898 7.302617 -0.000019 -70.954286 -0.000021 -26.141700 -22.912761 -13.622660 2.466100 -1.576217 2.681700 -9.549603 -15.106449 -5.744036 1.211572 -0.211729 -1.049109 2.647893 -1.528752 1.528756 -1.613931 0.163881 3.478091 1.998924 -1.154079 1.154077 0.000001 -0.000001 0.000003 9.109303 -0.518012 2.259904 -9.454938 -5.705962 -48.433698 0.214836 1.709993 -14.322269 0.038663 0.730251 -6.062697 0.000001 -0.000000 0.000001 9.533398 -0.000004 0.000004 -1.900767 0.051726 -38.950875 0.695739 3.021108 -25.933253 0.068814 0.973115 -8.091097 -0.000000 -0.000001 0.000001 9.104497 -0.043010 -1.865097 0.377136 2.959071 -39.993848 0.709660 3.049545 -26.196309 0.067418 0.963302 -8.008905 -0.000000 0.000000 0.000006 8.077817 -0.486892 -3.806299 2.250136 5.111083 -50.943085 0.178578 -2.477968 -13.692227 0.034654 0.691394 -5.738959 0.000000 -0.000000 -0.000004 -8.207798 -6.751713 -1.599542 -12.685240 -6.590596 -0.305252 40.320676 -9.602887 1.026407 -16.402469 -17.045820 19.467523 7.930296 0.141264 -3.753161 0.000000 0.000001 -0.000000 8.207802 -6.751711 -1.599542 -28.722796 10.095803 25.112978 45.000732 -1.912349 -3.354641 -12.413078 -2.525347 -0.855118 -3.997775 -0.000010 0.000001 -0.000000 -0.000000 0.000000 
-0.310950 96.592743 27.550270 -38.758274 77.176090 27.879027 -0.000004 10.181547 0.131522 20.353269 10.459896 8.191944 -1.111573 0.750310 3.364965 -1.162772 0.964566 3.957272 -0.000003 16.740379 -2.049021 1.920795 -11.827972 -6.839877 -0.000003 9.617830 1.684981 11.904069 -68.197793 15.749417 -0.000002 22.037399 7.501072 -0.000000 -0.000001 -0.000000 -4.569997 11.014875 -2.160842 0.951713 0.482814 23.520171 -33.509786 12.361506 23.654192 0.000001 21.133235 0.000017 -90.715636 27.522737 -22.441560 -2.464799 -1.574012 2.681917 -11.455154 -6.663904 -19.177781 2.048410 0.393919 1.670283 -2.646259 -1.527815 1.527803 -3.332934 3.627196 -2.932136 -1.994582 -1.151577 1.151579 -0.000001 0.000006 0.000003 -9.108291 -0.517873 2.259800 0.657603 5.983810 -6.422518 0.003285 -0.214094 1.757203 0.005579 0.278806 -2.288421 -0.000001 0.000001 -0.000001 -9.532492 -0.000002 -0.000000 0.020621 -1.255428 19.523391 0.030528 -0.652019 5.358266 0.113798 0.191386 -1.596354 -0.000005 0.000001 0.000001 -9.103603 -0.043102 -1.865098 4.395487 -7.015783 48.419812 0.200910 -1.662665 13.779577 0.632040 0.106292 -0.960142 0.000003 -0.000002 -0.000001 -8.076693 -0.486729 -3.806302 11.723174 -8.764377 72.611277 1.959394 -4.842376 44.040086 0.029916 0.645687 -5.306099 0.000002 0.000002 -0.000002 4.570401 11.014688 -2.160815 0.042204 2.061455 1.822646 -49.393807 1.823063 9.488576 -0.000004 -65.345793 0.000011 -29.534957 -25.653492 -11.009279 2.466100 -1.576217 2.681691 -8.955463 -15.409207 -7.621278 1.207378 -0.208029 -1.051287 2.647884 -1.528749 1.528749 -1.845754 -0.282237 3.518532 1.998914 -1.154108 1.154072 -0.000002 0.000003 -0.000002 9.109286 -0.518007 2.259895 -9.139039 -5.824826 -47.315326 0.185594 1.591107 -13.306932 0.039003 0.733425 -6.089176 -0.000001 -0.000002 -0.000001 9.533407 -0.000008 -0.000005 -1.872632 -0.024695 -38.220089 0.636576 2.896471 -24.787224 0.067426 0.963318 -8.009075 0.000000 -0.000000 0.000001 9.104506 -0.042994 -1.865105 0.346221 2.893977 -39.464860 0.648923 2.923014 -25.030435 0.066944 0.959880 -7.980257 0.000000 -0.000000 0.000001 8.077811 -0.486892 -3.806307 2.097576 4.982128 -50.493833 0.143535 -2.629061 -12.408633 0.035049 0.695402 -5.772335 0.000000 0.000000 -0.000001 -8.207798 -6.751725 -1.599546 -13.270328 -5.457082 0.342178 40.970364 -9.630145 1.021793 -16.177144 -15.482111 20.391723 7.188976 0.232903 -4.815000 0.000000 0.000001 0.000001 8.207803 -6.751710 -1.599548 -28.813197 10.796400 25.675677 45.632019 -1.743216 -2.045245 -12.056618 -0.861678 -1.009725 -4.158756 -0.000014 0.000004 0.000001 0.000000 0.000000 
